<svg width="31" height="31" viewBox="0 0 31 31" fill="none" xmlns="http://www.w3.org/2000/svg">
<path d="M15.5002 27.9646C15.0997 27.9646 14.7122 27.9129 14.3893 27.7966C9.45516 26.1046 1.61475 20.0983 1.61475 11.2246C1.61475 6.70373 5.27016 3.0354 9.76516 3.0354C11.9481 3.0354 13.9889 3.8879 15.5002 5.41207C17.0114 3.8879 19.0522 3.0354 21.2352 3.0354C25.7302 3.0354 29.3856 6.71665 29.3856 11.2246C29.3856 20.1112 21.5452 26.1046 16.611 27.7966C16.2881 27.9129 15.9006 27.9646 15.5002 27.9646ZM9.76516 4.9729C6.34225 4.9729 3.55225 7.77582 3.55225 11.2246C3.55225 20.0466 12.0385 24.955 15.0222 25.9754C15.2547 26.0529 15.7585 26.0529 15.991 25.9754C18.9618 24.955 27.461 20.0596 27.461 11.2246C27.461 7.77582 24.671 4.9729 21.2481 4.9729C19.2847 4.9729 17.4635 5.88998 16.2881 7.47873C15.9264 7.96957 15.0997 7.96957 14.7381 7.47873C13.5368 5.87707 11.7285 4.9729 9.76516 4.9729Z" fill="black"/>
</svg>
